<?xml version="1.0" standalone="no"?>
<!DOCTYPE svg PUBLIC "-//W3C//DTD SVG 20010904//EN"
 "http://www.w3.org/TR/2001/REC-SVG-20010904/DTD/svg10.dtd">
<svg version="1.0" xmlns="http://www.w3.org/2000/svg"
 width="608.000000pt" height="224.000000pt" viewBox="0 0 608.000000 224.000000"
 preserveAspectRatio="xMidYMid meet">

<g transform="translate(0.000000,224.000000) scale(0.100000,-0.100000)"
fill="#000000" stroke="none">
<path d="M905 2051 c-246 -61 -438 -192 -575 -391 -171 -251 -213 -570 -112
-860 88 -254 290 -461 547 -565 125 -50 218 -66 370 -66 187 0 385 65 542 177
l63 45 -35 33 -35 33 0 228 0 227 -41 -37 c-23 -20 -71 -51 -108 -69 -62 -29
-73 -31 -177 -31 -107 0 -112 1 -186 37 -140 70 -242 209 -273 374 -19 96 -19
146 0 242 21 100 64 188 127 257 99 108 198 156 328 157 110 1 192 -27 284
-97 l46 -35 0 26 c0 28 49 84 74 84 28 0 17 14 -46 60 -116 85 -231 139 -363
171 -106 25 -328 25 -430 0z"/>
<path d="M1932 1824 c-65 -27 -62 8 -62 -707 l0 -649 29 -29 c41 -40 91 -40
132 0 l29 29 0 135 0 135 57 52 56 51 146 -153 c255 -269 265 -278 295 -278
36 0 84 29 93 55 9 27 4 66 -12 90 -17 26 -31 42 -172 192 -66 71 -138 149
-162 175 l-42 46 48 45 c26 24 68 61 93 83 25 21 65 58 90 80 25 23 61 55 81
73 52 44 65 80 45 120 -24 45 -67 65 -105 49 -16 -7 -134 -110 -261 -228 -128
-118 -236 -216 -241 -218 -5 -2 -9 170 -9 396 l0 400 -25 30 c-29 35 -62 44
-103 26z"/>
<path d="M3228 1826 c-33 -7 -77 -26 -100 -43 -83 -59 -137 -189 -125 -296 8
-59 49 -152 85 -190 29 -31 111 -77 137 -77 8 0 15 -4 15 -10 0 -5 -5 -10 -12
-10 -7 0 -32 -7 -55 -16 -33 -13 -43 -22 -43 -39 0 -27 24 -39 50 -25 37 20
94 13 163 -20 54 -25 82 -33 130 -33 96 -1 185 47 170 91 -7 18 -27 15 -79
-13 -26 -14 -61 -25 -78 -25 -32 -1 -196 60 -196 72 0 4 33 17 73 29 61 19 80
31 129 80 71 72 93 133 86 249 -11 193 -166 315 -350 276z m182 -90 c22 -14
52 -49 68 -76 25 -43 30 -63 31 -130 2 -89 -10 -128 -59 -184 -92 -104 -259
-90 -338 30 -65 97 -52 251 26 330 69 70 192 83 272 30z"/>
<path d="M3726 1817 c-15 -11 -16 -44 -14 -296 3 -261 4 -285 21 -295 32 -19
47 16 47 110 l0 83 53 50 52 51 24 -28 c43 -50 56 -66 135 -169 80 -105 105
-121 126 -84 8 16 -9 43 -110 173 -66 84 -119 155 -119 158 1 3 50 50 109 105
108 99 130 135 94 149 -10 4 -68 -45 -187 -158 l-172 -164 -2 137 c-2 75 -5
146 -8 157 -6 27 -28 36 -49 21z"/>
<path d="M4313 1823 c-10 -4 -13 -73 -13 -299 0 -254 2 -295 15 -300 8 -4 22
-1 30 6 13 10 15 57 15 296 0 260 -1 284 -17 292 -10 5 -24 7 -30 5z"/>
<path d="M4474 1806 c-11 -29 7 -36 102 -36 l94 0 0 -264 c0 -228 2 -265 16
-277 11 -9 20 -10 32 -2 15 9 18 42 22 274 l5 264 98 3 c95 3 98 3 95 25 -3
22 -4 22 -231 25 -193 2 -228 0 -233 -12z"/>
<path d="M1277 1636 c-86 -31 -155 -110 -187 -214 -25 -82 -25 -153 0 -236 72
-231 333 -306 491 -139 50 52 76 108 90 193 28 168 -47 329 -181 389 -53 24
-155 27 -213 7z"/>
<path d="M4486 865 c-7 -20 3 -45 19 -45 16 0 26 25 19 45 -4 8 -12 15 -19 15
-7 0 -15 -7 -19 -15z"/>
<path d="M2974 857 c-2 -7 -3 -76 -2 -152 l3 -140 90 0 c73 0 90 3 90 15 0 12
-16 16 -72 18 l-73 3 0 49 0 50 60 0 c53 0 60 2 60 20 0 18 -7 20 -60 20 l-60
0 0 45 0 45 70 0 c63 0 70 2 70 20 0 18 -7 20 -85 20 -61 0 -87 -4 -91 -13z"/>
<path d="M3405 858 c-3 -8 -4 -77 -3 -153 l3 -140 83 -3 c77 -3 82 -2 82 18 0
18 -6 20 -65 20 l-64 0 -3 132 c-2 94 -7 133 -15 136 -7 2 -15 -3 -18 -10z"/>
<path d="M3662 774 c-29 -20 -52 -65 -52 -101 0 -34 31 -88 61 -103 29 -16 85
-4 104 22 20 30 3 45 -26 24 -31 -21 -55 -20 -79 4 -38 38 -27 49 53 52 66 3
72 5 75 26 2 15 -8 34 -31 57 -38 38 -70 44 -105 19z m88 -43 c15 -30 14 -31
-45 -31 -59 0 -64 4 -38 32 22 24 69 24 83 -1z"/>
<path d="M3891 777 c-33 -17 -23 -33 17 -29 40 4 62 -12 62 -43 0 -21 -2 -22
-29 -12 -58 22 -111 -46 -77 -98 20 -30 57 -41 86 -25 18 9 24 9 30 0 27 -44
43 100 19 169 -16 46 -62 62 -108 38z m67 -116 c18 -11 11 -51 -10 -65 -35
-22 -74 27 -48 59 14 17 38 19 58 6z"/>
<path d="M4085 777 c-3 -7 -4 -58 -3 -113 2 -80 6 -99 18 -99 11 0 16 17 20
71 5 69 20 104 44 104 18 0 35 21 29 36 -8 22 -32 17 -58 -12 -24 -25 -25 -26
-25 -6 0 25 -18 39 -25 19z"/>
<path d="M4255 779 c-3 -9 -4 -60 -3 -115 2 -80 6 -99 18 -99 12 0 16 16 18
75 2 51 8 80 19 92 40 44 71 6 75 -92 2 -59 6 -75 18 -75 22 0 26 143 5 185
-19 36 -56 48 -89 27 -21 -14 -25 -14 -39 0 -14 15 -17 15 -22 2z"/>
<path d="M4495 778 c-3 -8 -4 -59 -3 -114 2 -80 6 -99 18 -99 12 0 15 19 15
109 0 79 -4 111 -12 113 -7 3 -15 -2 -18 -9z"/>
<path d="M4605 779 c-3 -9 -4 -60 -3 -115 2 -80 6 -99 18 -99 12 0 16 16 18
75 2 51 8 80 19 92 40 44 71 6 75 -92 2 -59 6 -75 18 -75 22 0 26 143 5 185
-19 36 -56 48 -89 27 -21 -14 -25 -14 -39 0 -14 15 -17 15 -22 2z"/>
<path d="M4868 775 c-31 -17 -52 -73 -43 -114 14 -63 77 -97 127 -68 27 15 28
15 28 -3 0 -48 -57 -72 -116 -50 -35 14 -50 -1 -25 -24 25 -23 89 -30 121 -14
44 23 60 72 60 181 0 77 -3 97 -14 97 -8 0 -16 -5 -18 -12 -3 -8 -11 -7 -28 5
-30 21 -56 21 -92 2z m94 -42 c22 -20 23 -70 1 -95 -34 -38 -103 -11 -103 41
0 61 60 92 102 54z"/>
<path d="M3220 720 c0 -18 7 -20 55 -20 48 0 55 2 55 20 0 18 -7 20 -55 20
-48 0 -55 -2 -55 -20z"/>
</g>
</svg>
